# xmcd
# 
# Track frame offsets:
#     150
#     11215
#     23687
#     32715
#     45805
#     58770
#     69957
#     81272
#     92407
#     103167
#     115917
#     127155
#     138232
#     148975
# 
# Disc length: 2214
# 
# Revision: 1
# Processed by: cddbd v1.5.2PL0 Copyright (c) Steve Scherf et al.
# Submitted via: fre:ac v1.0.31
# 
DISCID=bd08a40e
DTITLE=Roots of Rhythm - House Party Tinight
DYEAR=2000
DGENRE=R&B
TTITLE0=Amos Milburn/House Party (Tonight)
TTITLE1=Cab Calloway/Everybody Eats When They Come to my House
TTITLE2=Fats Domino/What a Party
TTITLE3=Wynonie Harris/Oh Babe!
TTITLE4=Louis Jordan/House Party
TTITLE5=Peppermint Harris/ I Got Loaded
TTITLE6=Mabel Scott/Elevator Boogie
TTITLE7=Pee Wee Crayton/Texas Hop
TTITLE8=Big Joe Turner/Jumpin'  Tonight
TTITLE9=Big Jay McNeely's Blue Jays/The Deacon's Hop
TTITLE10=T-Bone Walker/Strollin' with Bones
TTITLE11=Hadda Brooks/Jump Back Honey
TTITLE12=Dave Bartholomew/Jump Children
TTITLE13=Memphis Slim/Chicago House Rent Party Blues
EXTD=
EXTT0=
EXTT1=
EXTT2=
EXTT3=
EXTT4=
EXTT5=
EXTT6=
EXTT7=
EXTT8=
EXTT9=
EXTT10=
EXTT11=
EXTT12=
EXTT13=
PLAYORDER=
